<?xml version="1.0" encoding="UTF-8"?>
<svg width="175px" height="29px" viewBox="0 0 175 29" version="1.1" xmlns="http://www.w3.org/2000/svg" xmlns:xlink="http://www.w3.org/1999/xlink">
    <title>编组 9</title>
    <g id="HOME-PAGE" stroke="none" stroke-width="1" fill="none" fill-rule="evenodd">
        <g id="home-light" transform="translate(-87.000000, -25.000000)">
            <g id="logo" transform="translate(38.000000, 18.000000)">
                <g id="编组-9" transform="translate(49.000000, 7.000000)">
                    <g id="编组-6" transform="translate(7.000000, 7.000000)" fill="#00FDFF" fill-rule="nonzero">
                        <polygon id="路径" points="4 1 4 0 0 0 0 1"></polygon>
                        <polygon id="路径" points="17 1 17 0 12.3333333 0 12.3333333 1"></polygon>
                        <polygon id="路径" points="4 3 4 2 0 2 0 3"></polygon>
                        <polygon id="路径" points="17 3 17 2 12.3333333 2 12.3333333 3"></polygon>
                        <polygon id="路径" points="4 6 4 5 0 5 0 6"></polygon>
                        <polygon id="路径" points="17 6 17 5 12.3333333 5 12.3333333 6"></polygon>
                        <polygon id="路径" points="4 8 4 7 0 7 0 8"></polygon>
                        <polygon id="路径" points="17 8 17 7 12.3333333 7 12.3333333 8"></polygon>
                        <polygon id="路径" points="4 12 4 11 0 11 0 12"></polygon>
                        <polygon id="路径" points="17 12 17 11 12.3333333 11 12.3333333 12"></polygon>
                        <polygon id="路径" points="17 14 17 13 3 13 3 14"></polygon>
                        <polygon id="路径" points="14.6666667 16 14.6666667 15 4.16666667 15 4.16666667 16"></polygon>
                        <g id="编组-5" transform="translate(19.000000, 0.000000)">
                            <polygon id="路径" points="18 1 18 0 0 0 0 1"></polygon>
                            <polygon id="路径" points="18 3 18 2 0 2 0 3"></polygon>
                            <polygon id="路径" points="13 6 13 5 8 5 8 6"></polygon>
                            <polygon id="路径" points="13 8 13 7 8 7 8 8"></polygon>
                            <polygon id="路径" points="13 12 13 11 8 11 8 12"></polygon>
                            <polygon id="路径" points="13 14 13 13 8 13 8 14"></polygon>
                            <polygon id="路径" points="13 16 13 15 8 15 8 16"></polygon>
                        </g>
                        <g id="编组-3" transform="translate(42.000000, 0.000000)">
                            <polygon id="路径" points="17 1 17 0 4 0 4 1"></polygon>
                            <polygon id="路径" points="20 3 20 2 1 2 1 3"></polygon>
                            <polygon id="路径" points="7 6 7 5 0 5 0 6"></polygon>
                            <polygon id="路径" points="19 6 19 5 12 5 12 6"></polygon>
                            <polygon id="路径" points="7 8 7 7 0 7 0 8"></polygon>
                            <polygon id="路径" points="19 8 19 7 12 7 12 8"></polygon>
                            <polygon id="路径" points="7 12 7 11 0 11 0 12"></polygon>
                            <polygon id="路径" points="19 12 19 11 12 11 12 12"></polygon>
                            <polygon id="路径" points="20 14 20 13 1 13 1 14"></polygon>
                            <polygon id="路径" points="17 16 17 15 4 15 4 16"></polygon>
                        </g>
                        <polygon id="路径" points="82 1 82 0 67 0 67 1"></polygon>
                        <polygon id="路径" points="82 3 82 2 67 2 67 3"></polygon>
                        <polygon id="路径" points="73.25 6 73.25 5 68.25 5 68.25 6"></polygon>
                        <polygon id="路径" points="80.75 6 80.75 5 75.75 5 75.75 6"></polygon>
                        <polygon id="路径" points="82 8 82 7 67 7 67 8"></polygon>
                        <polygon id="路径" points="82 12 82 11 67 11 67 12"></polygon>
                        <polygon id="路径" points="73.25 14 73.25 13 68.25 13 68.25 14"></polygon>
                        <polygon id="路径" points="73.25 16 73.25 15 68.25 15 68.25 16"></polygon>
                        <polygon id="路径" points="103 1 103 0 90 0 90 1"></polygon>
                        <polygon id="路径" points="103 3 103 2 90 2 90 3"></polygon>
                        <polygon id="路径" points="99 6 99 5 92 5 92 6"></polygon>
                        <polygon id="路径" points="99 8 99 7 92 7 92 8"></polygon>
                        <polygon id="路径" points="99 12 99 11 92 11 92 12"></polygon>
                        <polygon id="路径" points="103 14 103 13 90 13 90 14"></polygon>
                        <polygon id="路径" points="103 16 103 15 90 15 90 16"></polygon>
                        <polygon id="路径" points="119.333333 1 119.333333 0 110.833333 0 110.833333 1"></polygon>
                        <polygon id="路径" points="122.166667 3 122.166667 2 109.416667 2 109.416667 3"></polygon>
                        <polygon id="路径" points="125 6 125 5 108 5 108 6"></polygon>
                        <polygon id="路径" points="113.666667 8 113.666667 7 108 7 108 8"></polygon>
                        <polygon id="路径" points="122.166667 8 122.166667 7 116.5 7 116.5 8"></polygon>
                        <polygon id="路径" points="125 12 125 11 108 11 108 12"></polygon>
                        <polygon id="路径" points="125 14 125 13 108 13 108 14"></polygon>
                        <polygon id="路径" points="113.666667 16 113.666667 15 105.666667 15 105.666667 16"></polygon>
                        <polygon id="路径" points="123 16 123 15 119 15 119 16"></polygon>
                        <polygon id="路径" points="146 1 146 0 129 0 129 1"></polygon>
                        <polygon id="路径" points="146 3 146 2 129 2 129 3"></polygon>
                        <polygon id="路径" points="134.666667 6 134.666667 5 129 5 129 6"></polygon>
                        <polygon id="路径" points="146 6 146 5 142 5 142 6"></polygon>
                        <polygon id="路径" points="134.666667 8 134.666667 7 129 7 129 8"></polygon>
                        <polygon id="路径" points="146 8 146 7 142 7 142 8"></polygon>
                        <polygon id="路径" points="134.666667 12 134.666667 11 129 11 129 12"></polygon>
                        <polygon id="路径" points="146 12 146 11 142 11 142 12"></polygon>
                        <polygon id="路径" points="134.666667 14 134.666667 13 129 13 129 14"></polygon>
                        <polygon id="路径" points="146 14 146 13 142 13 142 14"></polygon>
                        <polygon id="路径" points="134.666667 16 134.666667 15 129 15 129 16"></polygon>
                        <polygon id="路径" points="146 16 146 15 142 15 142 16"></polygon>
                        <polygon id="路径" points="168 1 168 0 157 0 157 1"></polygon>
                        <polygon id="路径" points="168 3 168 2 156 2 156 3"></polygon>
                        <polygon id="路径" points="160 6 160 5 156 5 156 6"></polygon>
                        <polygon id="路径" points="168 8 168 7 156 7 156 8"></polygon>
                        <polygon id="路径" points="167 12 167 11 163 11 163 12"></polygon>
                        <polygon id="路径" points="168 14 168 13 156 13 156 14"></polygon>
                        <polygon id="路径" points="167 16 167 15 156 15 156 16"></polygon>
                    </g>
                    <text id="UTOPIANS" font-family="LexendTera-Bold, Lexend Tera" font-size="23" font-weight="bold" fill="#FFFFFF">
                        <tspan x="0.142690918" y="23">UTOPIANS</tspan>
                    </text>
                </g>
            </g>
        </g>
    </g>
</svg>